# Blender 3.6.0
# www.blender.org
mtllib unitybody.mtl
o Cube.011
v 0.078087 0.975736 -0.246715
v 0.078087 0.487168 -0.246715
v 0.078087 0.975736 0.241854
v 0.078087 0.487168 0.241854
v -0.410482 0.975736 -0.246715
v -0.410482 0.487168 -0.246715
v -0.410482 0.975736 0.241854
v -0.410482 0.487168 0.241854
v 0.653660 -0.158680 0.482499
v 0.531564 -0.370157 0.482499
v 0.653660 -0.158680 0.776409
v 0.531564 -0.370157 0.776409
v -0.282533 0.381831 0.482499
v -0.404629 0.170355 0.482499
v -0.282533 0.381831 0.776409
v -0.404629 0.170355 0.776409
v 0.672362 -0.132671 -0.758165
v 0.550266 -0.344147 -0.758165
v 0.672362 -0.132671 -0.464254
v 0.550266 -0.344147 -0.464254
v -0.263831 0.407840 -0.758165
v -0.385927 0.196364 -0.758165
v -0.263831 0.407840 -0.464254
v -0.385927 0.196364 -0.464254
v 0.008142 0.435347 -0.428804
v 0.008142 -0.701650 -0.428804
v 0.008142 0.435347 0.423943
v 0.008142 -0.701650 0.423943
v -0.423917 0.435347 -0.428804
v -0.423917 -0.701650 -0.428804
v -0.423917 0.435347 0.423943
v -0.423917 -0.701650 0.423943
v 1.091920 -0.449016 0.143890
v 1.091920 -0.693208 0.143890
v 1.091920 -0.449016 0.437801
v 1.091920 -0.693208 0.437801
v 0.010898 -0.449016 0.143890
v 0.010898 -0.693208 0.143890
v 0.010898 -0.449016 0.437801
v 0.010898 -0.693208 0.437801
v 1.093643 -0.449016 -0.439270
v 1.093643 -0.693208 -0.439270
v 1.093643 -0.449016 -0.145359
v 1.093643 -0.693208 -0.145359
v 0.012621 -0.449016 -0.439270
v 0.012621 -0.693208 -0.439270
v 0.012621 -0.449016 -0.145359
v 0.012621 -0.693208 -0.145359
vn -0.0000 1.0000 -0.0000
vn -0.0000 -0.0000 1.0000
vn -1.0000 -0.0000 -0.0000
vn -0.0000 -1.0000 -0.0000
vn 1.0000 -0.0000 -0.0000
vn -0.0000 -0.0000 -1.0000
vn 0.5000 0.8660 -0.0000
vn -0.8660 0.5000 -0.0000
vn -0.5000 -0.8660 -0.0000
vn 0.8660 -0.5000 -0.0000
vt 0.625000 0.500000
vt 0.875000 0.500000
vt 0.875000 0.750000
vt 0.625000 0.750000
vt 0.375000 0.750000
vt 0.625000 1.000000
vt 0.375000 1.000000
vt 0.375000 0.000000
vt 0.625000 0.000000
vt 0.625000 0.250000
vt 0.375000 0.250000
vt 0.125000 0.500000
vt 0.375000 0.500000
vt 0.125000 0.750000
s 0
usemtl Material.011
f 1/1/1 5/2/1 7/3/1 3/4/1
f 4/5/2 3/4/2 7/6/2 8/7/2
f 8/8/3 7/9/3 5/10/3 6/11/3
f 6/12/4 2/13/4 4/5/4 8/14/4
f 2/13/5 1/1/5 3/4/5 4/5/5
f 6/11/6 5/10/6 1/1/6 2/13/6
usemtl Material.010
f 9/1/7 13/2/7 15/3/7 11/4/7
f 12/5/2 11/4/2 15/6/2 16/7/2
f 16/8/8 15/9/8 13/10/8 14/11/8
f 14/12/9 10/13/9 12/5/9 16/14/9
f 10/13/10 9/1/10 11/4/10 12/5/10
f 14/11/6 13/10/6 9/1/6 10/13/6
usemtl Material.009
f 17/1/7 21/2/7 23/3/7 19/4/7
f 20/5/2 19/4/2 23/6/2 24/7/2
f 24/8/8 23/9/8 21/10/8 22/11/8
f 22/12/9 18/13/9 20/5/9 24/14/9
f 18/13/10 17/1/10 19/4/10 20/5/10
f 22/11/6 21/10/6 17/1/6 18/13/6
usemtl Material.012
f 25/1/1 29/2/1 31/3/1 27/4/1
f 28/5/2 27/4/2 31/6/2 32/7/2
f 32/8/3 31/9/3 29/10/3 30/11/3
f 30/12/4 26/13/4 28/5/4 32/14/4
f 26/13/5 25/1/5 27/4/5 28/5/5
f 30/11/6 29/10/6 25/1/6 26/13/6
usemtl Material.007
f 33/1/1 37/2/1 39/3/1 35/4/1
f 36/5/2 35/4/2 39/6/2 40/7/2
f 40/8/3 39/9/3 37/10/3 38/11/3
f 38/12/4 34/13/4 36/5/4 40/14/4
f 34/13/5 33/1/5 35/4/5 36/5/5
f 38/11/6 37/10/6 33/1/6 34/13/6
usemtl Material.008
f 41/1/1 45/2/1 47/3/1 43/4/1
f 44/5/2 43/4/2 47/6/2 48/7/2
f 48/8/3 47/9/3 45/10/3 46/11/3
f 46/12/4 42/13/4 44/5/4 48/14/4
f 42/13/5 41/1/5 43/4/5 44/5/5
f 46/11/6 45/10/6 41/1/6 42/13/6
